<?xml version="1.0" standalone="no"?>
<svg xmlns="http://www.w3.org/2000/svg" viewBox="0 0 207 71" width="207" height="71"><g fill="#ead017" color="#ead017" transform="translate(85.617 0) scale(0.3888889) "><svg width="90.0" height="90.0" x="0.0" y="0.0" viewBox="0 0 90 90"><path fill="currentColor" d="M11.951,56.514c0,0-2.041,6.674-7.099,8.502c-0.488,0.176,7.83-0.031,11.242-5.484"></path><path fill="currentColor" d="M86.09,33.887c-0.4,0.097-0.824,0.164-1.146,0.164H64.234v-0.002c-0.549,0-1.41-0.184-1.912-0.409  l-0.629-0.628c-0.226-0.502-0.408-1.363-0.408-1.913V20.498c-5.047-1.098-10.537-1.707-16.288-1.707  c-24.618,0-44.573,11.048-44.573,24.678c0,13.633,19.955,24.68,44.573,24.68c24.621,0,44.578-11.047,44.578-24.68  C89.575,40.07,88.334,36.833,86.09,33.887z M33.381,49.536c-0.942,0-1.706-0.765-1.706-1.706c0-0.942,0.764-1.706,1.706-1.706  c0.942,0,1.706,0.764,1.706,1.706C35.087,48.771,34.323,49.536,33.381,49.536z M45,49.607c-0.942,0-1.706-0.764-1.706-1.707  c0-0.941,0.764-1.705,1.706-1.705s1.706,0.764,1.706,1.705C46.706,48.844,45.942,49.607,45,49.607z M56.456,49.436  c-0.942,0-1.706-0.764-1.706-1.707c0-0.941,0.764-1.705,1.706-1.705s1.706,0.764,1.706,1.705  C58.162,48.672,57.398,49.436,56.456,49.436z"></path><g><polygon fill="currentColor" points="84.943,19.424 64.344,19.424 74.639,24.24  "></polygon><path fill="currentColor" d="M74.651,25.463l-0.005,0.01l-0.008-0.004l-0.013,0.006l-0.007-0.015l-11.337-5.274   c-0.02,0.078-0.048,0.153-0.048,0.237v10.675c0,0.55,0.451,1,1,1h20.709c0.551,0,1-0.45,1-1V20.424   c0-0.066-0.025-0.125-0.038-0.188L74.651,25.463z"></path></g></svg></g><line x1="86.66600000000001" y1="41" x2="119.566" y2="41" stroke="#000000" stroke-linecap="round"></line><path fill="#000000" fill-rule="nonzero" d="M12.89 10.32L12.89 10.32L12.91 12.17Q12.82 13.92 12.48 15.12Q12.14 16.32 11.16 17.30L11.16 17.30Q9.53 18.94 6.41 18.94L6.41 18.94Q2.74 18.94 1.37 17.96Q0 16.99 0 14.45L0 14.45L0 1.85L6.65 1.85Q9.53 1.85 11.16 3.48L11.16 3.48Q12.48 4.80 12.72 6.70L12.72 6.70Q12.89 8.04 12.89 10.32ZM8.83 14.90Q9.29 14.35 9.42 13.38Q9.55 12.41 9.55 10.34Q9.55 8.28 9.42 7.36Q9.29 6.43 8.83 5.88L8.83 5.88Q7.97 4.82 6.34 4.82L6.34 4.82L3.34 4.82L3.34 14.28Q3.34 15.24 3.98 15.60Q4.63 15.96 6.30 15.96Q7.97 15.96 8.83 14.90L8.83 14.90ZM17.16 0Q18.29 0 18.62 0.35Q18.96 0.70 18.96 1.81Q18.96 2.93 18.61 3.28Q18.26 3.62 17.15 3.62Q16.03 3.62 15.68 3.26Q15.34 2.90 15.34 1.80Q15.34 0.70 15.68 0.35Q16.03 0 17.16 0ZM18.70 5.74L18.70 18.94L15.58 18.94L15.58 5.74L18.70 5.74ZM31.58 15.14L31.58 15.14L31.58 15.50Q31.44 17.30 30.06 18.22Q28.68 19.13 26.62 19.13L26.62 19.13Q23.57 19.13 22.34 18.02L22.34 18.02Q21.22 17.02 21.22 15.05L21.22 15.05L21.22 14.76L24.05 14.76Q24.05 15.86 24.62 16.27Q25.20 16.68 26.62 16.68L26.62 16.68Q28.54 16.68 28.54 15.29L28.54 15.29Q28.54 14.14 27.86 13.75L27.86 13.75Q27.55 13.56 27.07 13.46L27.07 13.46L24.65 13.06Q21.48 12.55 21.48 9.10L21.48 9.10Q21.48 7.18 22.88 6.11Q24.29 5.04 26.45 5.04L26.45 5.04Q31.37 5.04 31.37 9.29L31.37 9.29L31.37 9.60L28.66 9.60Q28.61 8.47 28.06 8.06Q27.50 7.66 26.51 7.66Q25.51 7.66 25.01 8.05Q24.50 8.45 24.50 8.93L24.50 8.93Q24.50 10.30 25.61 10.49L25.61 10.49L28.51 11.02Q31.58 11.59 31.58 15.14ZM41.21 13.92L41.21 13.92L44.04 13.90Q44.02 14.09 43.99 14.59Q43.97 15.10 43.96 15.28Q43.94 15.46 43.90 15.84Q43.85 16.22 43.79 16.40Q43.73 16.58 43.63 16.87L43.63 16.87Q43.20 18.12 41.28 18.84L41.28 18.84Q40.06 19.27 38.72 19.27Q37.39 19.27 36.31 18.84Q35.23 18.41 34.61 17.74L34.61 17.74Q33.19 16.25 33.19 12.16Q33.19 8.06 34.61 6.58L34.61 6.58Q35.23 5.90 36.31 5.47Q37.39 5.04 38.71 5.04L38.71 5.04Q41.30 5.04 42.65 6.34Q43.99 7.63 43.99 9.94L43.99 9.94L41.16 9.94Q41.16 8.88 40.63 8.36Q40.10 7.85 38.68 7.85Q37.25 7.85 36.78 8.74Q36.31 9.62 36.31 11.40L36.31 11.40L36.31 12.65Q36.31 15.50 37.42 16.15L37.42 16.15Q37.92 16.46 38.74 16.46Q39.55 16.46 40.07 16.31Q40.58 16.15 40.81 15.77Q41.04 15.38 41.11 15.01Q41.18 14.64 41.21 13.92ZM56.90 5.23L56.90 18.94L54.58 18.94L53.86 17.30L50.02 19.08Q48.41 19.08 47.22 17.89Q46.03 16.70 46.03 14.42L46.03 14.42L46.03 5.23L49.15 5.23L49.15 13.75Q49.15 16.03 50.98 16.03L50.98 16.03L53.78 14.52L53.78 5.23L56.90 5.23ZM69.82 15.14L69.82 15.14L69.82 15.50Q69.67 17.30 68.29 18.22Q66.91 19.13 64.85 19.13L64.85 19.13Q61.80 19.13 60.58 18.02L60.58 18.02Q59.45 17.02 59.45 15.05L59.45 15.05L59.45 14.76L62.28 14.76Q62.28 15.86 62.86 16.27Q63.43 16.68 64.85 16.68L64.85 16.68Q66.77 16.68 66.77 15.29L66.77 15.29Q66.77 14.14 66.10 13.75L66.10 13.75Q65.78 13.56 65.30 13.46L65.30 13.46L62.88 13.06Q59.71 12.55 59.71 9.10L59.71 9.10Q59.71 7.18 61.12 6.11Q62.52 5.04 64.68 5.04L64.68 5.04Q69.60 5.04 69.60 9.29L69.60 9.29L69.60 9.60L66.89 9.60Q66.84 8.47 66.29 8.06Q65.74 7.66 64.74 7.66Q63.74 7.66 63.24 8.05Q62.74 8.45 62.74 8.93L62.74 8.93Q62.74 10.30 63.84 10.49L63.84 10.49L66.74 11.02Q69.82 11.59 69.82 15.14ZM81.84 15.14L81.84 15.14L81.84 15.50Q81.70 17.30 80.32 18.22Q78.94 19.13 76.87 19.13L76.87 19.13Q73.82 19.13 72.60 18.02L72.60 18.02Q71.47 17.02 71.47 15.05L71.47 15.05L71.47 14.76L74.30 14.76Q74.30 15.86 74.88 16.27Q75.46 16.68 76.87 16.68L76.87 16.68Q78.79 16.68 78.79 15.29L78.79 15.29Q78.79 14.14 78.12 13.75L78.12 13.75Q77.81 13.56 77.33 13.46L77.33 13.46L74.90 13.06Q71.74 12.55 71.74 9.10L71.74 9.10Q71.74 7.18 73.14 6.11Q74.54 5.04 76.70 5.04L76.70 5.04Q81.62 5.04 81.62 9.29L81.62 9.29L81.62 9.60L78.91 9.60Q78.86 8.47 78.31 8.06Q77.76 7.66 76.76 7.66Q75.77 7.66 75.26 8.05Q74.76 8.45 74.76 8.93L74.76 8.93Q74.76 10.30 75.86 10.49L75.86 10.49L78.77 11.02Q81.84 11.59 81.84 15.14ZM86.04 0Q87.17 0 87.50 0.35Q87.84 0.70 87.84 1.81Q87.84 2.93 87.49 3.28Q87.14 3.62 86.03 3.62Q84.91 3.62 84.56 3.26Q84.22 2.90 84.22 1.80Q84.22 0.70 84.56 0.35Q84.91 0 86.04 0ZM87.58 5.74L87.58 18.94L84.46 18.94L84.46 5.74L87.58 5.74ZM98.47 12.74L98.47 12.74L98.47 11.50Q98.47 9.72 97.96 8.78Q97.44 7.85 95.81 7.85L95.81 7.85Q93.17 7.85 93.17 11.40L93.17 11.40L93.17 12.65Q93.17 16.46 95.81 16.46L95.81 16.46Q97.51 16.46 98.04 15.19L98.04 15.19Q98.47 14.18 98.47 12.74ZM101.59 12.02L101.59 12.02Q101.59 16.46 99.91 17.98L99.91 17.98Q98.50 19.27 95.81 19.27L95.81 19.27Q92.38 19.27 91.18 17.26L91.18 17.26Q90.05 15.41 90.05 12.02L90.05 12.02Q90.05 8.86 91.18 7.06L91.18 7.06Q92.42 5.04 95.72 5.04Q99.02 5.04 100.31 6.80Q101.59 8.57 101.59 12.02ZM114.72 9.74L114.72 18.94L111.60 18.94L111.60 10.18Q111.60 9 111.12 8.57Q110.64 8.14 109.78 8.14L109.78 8.14L106.97 9.31L106.97 18.94L103.85 18.94L103.85 5.23L106.18 5.23L106.90 6.86L110.74 5.09Q112.34 5.09 113.53 6.28Q114.72 7.46 114.72 9.74L114.72 9.74ZM133.68 12.82L133.68 12.82L125.69 12.82Q125.69 14.69 126.28 15.55Q126.86 16.42 128.64 16.42L128.64 16.42Q129.79 16.42 130.34 15.68Q130.90 14.95 130.90 14.28L130.90 14.28L133.70 14.28Q133.70 16.85 132.32 18.05Q130.94 19.25 128.68 19.25Q126.41 19.25 125.16 18.60L125.16 18.60Q122.59 17.28 122.59 11.59L122.59 11.59Q122.59 8.21 124.06 6.64Q125.52 5.06 128.52 5.06L128.52 5.06Q133.73 5.06 133.73 10.85L133.73 10.85Q133.73 11.47 133.68 12.82ZM125.76 10.68L125.76 10.68L130.90 10.68Q130.90 9.10 130.30 8.38Q129.70 7.66 128.46 7.66Q127.22 7.66 126.49 8.39Q125.76 9.12 125.76 10.68ZM147.19 9.74L147.19 18.94L144.07 18.94L144.07 10.18Q144.07 9 143.59 8.57Q143.11 8.14 142.25 8.14L142.25 8.14L139.44 9.31L139.44 18.94L136.32 18.94L136.32 5.23L138.65 5.23L139.37 6.86L143.21 5.09Q144.82 5.09 146.00 6.28Q147.19 7.46 147.19 9.74L147.19 9.74ZM158.88 0.89L158.88 18.94L155.76 18.96L155.76 0.89L158.88 0.89ZM163.82 0Q164.95 0 165.29 0.35Q165.62 0.70 165.62 1.81Q165.62 2.93 165.28 3.28Q164.93 3.62 163.81 3.62Q162.70 3.62 162.35 3.26Q162.00 2.90 162.00 1.80Q162.00 0.70 162.35 0.35Q162.70 0 163.82 0ZM165.36 5.74L165.36 18.94L162.24 18.94L162.24 5.74L165.36 5.74ZM172.27 5.33L175.56 5.33L178.68 5.14L178.68 18.31Q178.68 20.59 177.40 21.80Q176.11 23.02 173.59 23.02L173.59 23.02Q171.65 23.02 170.18 22.25L170.18 22.25Q169.42 21.86 168.96 21.10Q168.50 20.33 168.50 19.27L168.50 19.27L171.41 19.13Q171.41 19.80 171.89 20.09Q172.37 20.38 173.53 20.38Q174.70 20.38 175.12 19.80Q175.54 19.22 175.54 18.14L175.54 18.14L175.66 16.08L172.30 17.88Q169.54 17.88 168.58 16.01L168.58 16.01Q167.71 14.35 167.71 11.95L167.71 11.95Q167.71 9.10 168.14 7.92L168.14 7.92Q168.60 6.62 169.44 6.05L169.44 6.05Q170.52 5.33 172.27 5.33L172.27 5.33ZM173.18 14.59L175.56 13.37L175.56 8.14L173.18 8.14Q171.84 8.14 171.34 9.05Q170.83 9.96 170.83 11.59Q170.83 13.22 171.35 13.91Q171.86 14.59 173.18 14.59L173.18 14.59ZM192.79 9.74L192.79 18.94L189.67 18.94L189.67 10.18Q189.67 9 189.19 8.57Q188.71 8.14 187.85 8.14L187.85 8.14L185.04 9.31L185.04 18.94L181.92 18.94L181.92 5.23L184.25 5.23L184.97 6.86L188.81 5.09Q190.42 5.09 191.60 6.28Q192.79 7.46 192.79 9.74L192.79 9.74ZM206.18 12.82L206.18 12.82L198.19 12.82Q198.19 14.69 198.78 15.55Q199.37 16.42 201.14 16.42L201.14 16.42Q202.30 16.42 202.85 15.68Q203.40 14.95 203.40 14.28L203.40 14.28L206.21 14.28Q206.21 16.85 204.83 18.05Q203.45 19.25 201.18 19.25Q198.91 19.25 197.66 18.60L197.66 18.60Q195.10 17.28 195.10 11.59L195.10 11.59Q195.10 8.21 196.56 6.64Q198.02 5.06 201.02 5.06L201.02 5.06Q206.23 5.06 206.23 10.85L206.23 10.85Q206.23 11.47 206.18 12.82ZM198.26 10.68L198.26 10.68L203.40 10.68Q203.40 9.10 202.80 8.38Q202.20 7.66 200.96 7.66Q199.73 7.66 199.00 8.39Q198.26 9.12 198.26 10.68Z" transform="translate(0, 47)"></path></svg>